<svg width="154" height="154" viewBox="0 0 154 154" fill="none" xmlns="http://www.w3.org/2000/svg">
<path fill-rule="evenodd" clip-rule="evenodd" d="M96.2502 19.25L102.667 25.6666L102.667 38.5H141.167V128.333H12.834V38.5H51.334V25.6666L57.7502 19.25H96.2502ZM25.6668 85.7031V115.5H128.334V85.7031C115.513 89.3714 102.678 91.6658 89.8337 92.5832V102.667H64.1671V92.5835C51.3232 91.6661 38.4876 89.3714 25.6668 85.7031ZM128.334 51.3337H25.6671V72.318C42.8032 77.5817 59.9081 80.2087 77.0002 80.2087C94.0927 80.2087 111.198 77.5817 128.334 72.318V51.3337ZM89.834 32.0837H64.1674V38.5H89.834V32.0837Z" fill="#4CA626"/>
</svg>
