<svg width="103" height="103" viewBox="0 0 103 103" fill="none" xmlns="http://www.w3.org/2000/svg">
<path d="M51.4996 30.6039C48.7555 30.6039 46.0383 31.1444 43.503 32.1945C40.9678 33.2446 38.6642 34.7838 36.7239 36.7242C34.7835 38.6646 33.2443 40.9682 32.1941 43.5034C31.144 46.0386 30.6035 48.7559 30.6035 51.5C30.6035 54.2441 31.144 56.9614 32.1941 59.4966C33.2443 62.0318 34.7835 64.3354 36.7239 66.2758C38.6642 68.2162 40.9678 69.7554 43.503 70.8055C46.0383 71.8556 48.7555 72.3961 51.4996 72.3961C57.0416 72.3961 62.3567 70.1946 66.2754 66.2758C70.1942 62.357 72.3958 57.042 72.3958 51.5C72.3958 45.958 70.1942 40.643 66.2754 36.7242C62.3567 32.8054 57.0416 30.6039 51.4996 30.6039ZM37.041 51.5C37.041 47.6653 38.5643 43.9877 41.2759 41.2762C43.9874 38.5647 47.665 37.0414 51.4996 37.0414C55.3343 37.0414 59.0119 38.5647 61.7234 41.2762C64.435 43.9877 65.9583 47.6653 65.9583 51.5C65.9583 55.3347 64.435 59.0123 61.7234 61.7238C59.0119 64.4353 55.3343 65.9586 51.4996 65.9586C47.665 65.9586 43.9874 64.4353 41.2759 61.7238C38.5643 59.0123 37.041 55.3347 37.041 51.5Z" fill="#4CA626"/>
<path d="M63.0615 8.64558C59.6689 -2.87755 43.3305 -2.87755 39.938 8.64558L39.3328 10.6991C39.0959 11.5035 38.682 12.2447 38.1214 12.8683C37.5608 13.4919 36.8678 13.9822 36.0931 14.3032C35.3184 14.6242 34.4817 14.7677 33.6444 14.7233C32.807 14.6789 31.9902 14.4477 31.2538 14.0466L29.374 13.0166C18.8165 7.27439 7.27409 18.8233 13.0228 29.3743L14.0463 31.2541C14.4474 31.9905 14.6786 32.8073 14.723 33.6447C14.7674 34.482 14.6239 35.3187 14.3029 36.0934C13.9819 36.8681 13.4916 37.5611 12.868 38.1217C12.2444 38.6823 11.5032 39.0962 10.6988 39.3331L8.64527 39.9383C-2.87785 43.3308 -2.87785 59.6692 8.64527 63.0618L10.6988 63.6669C11.5032 63.9038 12.2444 64.3177 12.868 64.8783C13.4916 65.4389 13.9819 66.1319 14.3029 66.9066C14.6239 67.6813 14.7674 68.518 14.723 69.3554C14.6786 70.1927 14.4474 71.0096 14.0463 71.746L13.0163 73.6257C7.27409 84.1832 18.8165 95.7321 29.374 89.977L31.2538 88.9534C31.9902 88.5523 32.807 88.3211 33.6444 88.2767C34.4817 88.2323 35.3184 88.3759 36.0931 88.6968C36.8678 89.0178 37.5608 89.5081 38.1214 90.1317C38.682 90.7553 39.0959 91.4965 39.3328 92.3009L39.938 94.3545C43.3305 105.878 59.6689 105.878 63.0615 94.3545L63.6666 92.3009C63.9035 91.4965 64.3174 90.7553 64.878 90.1317C65.4386 89.5081 66.1316 89.0178 66.9063 88.6968C67.681 88.3759 68.5177 88.2323 69.3551 88.2767C70.1924 88.3211 71.0093 88.5523 71.7457 88.9534L73.6254 89.9834C84.1829 95.7321 95.7318 84.1768 89.9767 73.6257L88.9531 71.746C88.552 71.0096 88.3208 70.1927 88.2764 69.3554C88.232 68.518 88.3756 67.6813 88.6965 66.9066C89.0175 66.1319 89.5078 65.4389 90.1314 64.8783C90.755 64.3177 91.4962 63.9038 92.3006 63.6669L94.3541 63.0618C105.877 59.6692 105.877 43.3308 94.3541 39.9383L92.3006 39.3331C91.4962 39.0962 90.755 38.6823 90.1314 38.1217C89.5078 37.5611 89.0175 36.8681 88.6965 36.0934C88.3756 35.3187 88.232 34.482 88.2764 33.6447C88.3208 32.8073 88.552 31.9905 88.9531 31.2541L89.9831 29.3743C95.7318 18.8168 84.1765 7.27439 73.6254 13.0231L71.7457 14.0466C71.0093 14.4477 70.1924 14.6789 69.3551 14.7233C68.5177 14.7677 67.681 14.6242 66.9063 14.3032C66.1316 13.9822 65.4386 13.4919 64.878 12.8683C64.3174 12.2447 63.9035 11.5035 63.6666 10.6991L63.0615 8.64558ZM46.1115 10.4674C47.6951 5.09208 55.3043 5.09208 56.8879 10.4674L57.493 12.521C58.0017 14.2468 58.8902 15.8368 60.0933 17.1746C61.2964 18.5124 62.7837 19.564 64.446 20.2523C66.1084 20.9405 67.9037 21.2481 69.7003 21.1523C71.497 21.0565 73.2495 20.5599 74.8292 19.6988L76.7025 18.6688C81.6208 15.9972 87.0025 21.3725 84.3245 26.2972L83.301 28.177C82.4412 29.7569 81.9457 31.5092 81.851 33.3054C81.7563 35.1017 82.0646 36.8964 82.7534 38.558C83.4423 40.2196 84.4942 41.706 85.832 42.9084C87.1698 44.1107 88.7598 44.9985 90.4852 45.5067L92.5323 46.1118C97.9076 47.6955 97.9076 55.3046 92.5323 56.8882L90.4788 57.4933C88.753 58.002 87.1629 58.8905 85.8251 60.0936C84.4873 61.2967 83.4357 62.784 82.7475 64.4463C82.0592 66.1087 81.7517 67.904 81.8474 69.7006C81.9432 71.4973 82.4399 73.2498 83.301 74.8295L84.331 76.7028C87.0025 81.6211 81.6272 87.0028 76.7025 84.3248L74.8292 83.3013C73.249 82.4402 71.4961 81.9439 69.6991 81.8485C67.9021 81.7531 66.1066 82.0612 64.4441 82.7501C62.7817 83.4391 61.2945 84.4914 60.0917 85.8299C58.8889 87.1684 58.001 88.7592 57.493 90.4855L56.8879 92.5326C55.3043 97.908 47.6951 97.908 46.1115 92.5326L45.5064 90.4791C44.9975 88.7542 44.1092 87.165 42.9065 85.8279C41.7038 84.4907 40.2173 83.4396 38.5558 82.7514C36.8942 82.0632 35.0998 81.7554 33.3039 81.8506C31.508 81.9457 29.7562 82.4414 28.1766 83.3013L26.2969 84.3313C21.3786 87.0028 15.9969 81.6275 18.6749 76.7028L19.6985 74.8295C20.5608 73.2495 21.0584 71.4965 21.1548 69.6991C21.2512 67.9016 20.944 66.1054 20.2556 64.4422C19.5672 62.7791 18.5152 61.2911 17.1768 60.0875C15.8383 58.884 14.2473 57.9954 12.5206 57.4869L10.4671 56.8818C5.09177 55.2981 5.09177 47.689 10.4671 46.1054L12.5206 45.5003C14.2446 44.9911 15.833 44.1029 17.1694 42.9007C18.5059 41.6985 19.5566 40.2127 20.2447 38.552C20.9328 36.8913 21.2409 35.0977 21.1464 33.3026C21.0518 31.5075 20.5571 29.7562 19.6985 28.177L18.6685 26.2972C15.9969 21.379 21.3722 15.9972 26.2969 18.6752L28.1766 19.6988C29.7562 20.5587 31.508 21.0543 33.3039 21.1495C35.0998 21.2446 36.8942 20.9368 38.5558 20.2486C40.2173 19.5604 41.7038 18.5093 42.9065 17.1722C44.1092 15.8351 44.9975 14.2459 45.5064 12.521L46.1115 10.4674Z" fill="#4CA626"/>
</svg>
