<svg width="125" height="125" viewBox="0 0 125 125" fill="none" xmlns="http://www.w3.org/2000/svg">
<path d="M61.7764 12.4479C64.2965 10.7685 67.2504 9.85772 70.2787 9.82628C73.307 9.79484 76.2792 10.6441 78.8337 12.2708L100.469 26.0416H109.375C110.757 26.0416 112.081 26.5904 113.058 27.5671C114.035 28.5439 114.584 29.8686 114.584 31.25V78.125C114.584 79.5063 114.035 80.8311 113.058 81.8078C112.081 82.7846 110.757 83.3333 109.375 83.3333H101.459C101.626 85.8695 101.089 88.4026 99.9082 90.6532C98.7273 92.9039 96.9478 94.7848 94.7659 96.0885L68.2399 112.005C66.61 112.982 64.7438 113.495 62.8435 113.488C60.9431 113.48 59.081 112.953 57.4587 111.964C55.6314 113.578 53.2956 114.5 50.8583 114.57C48.4209 114.639 46.0364 113.852 44.1201 112.344L17.3493 91.3073C15.478 89.8389 14.1655 87.7743 13.6302 85.4567C13.0948 83.1391 13.3688 80.708 14.4066 78.5677C13.1629 77.5926 12.1573 76.3473 11.4661 74.926C10.7749 73.5048 10.4161 71.945 10.417 70.3646V31.25C10.417 29.8686 10.9657 28.5439 11.9425 27.5671C12.9192 26.5904 14.244 26.0416 15.6253 26.0416H41.391L61.7764 12.4479ZM21.7347 71.0729L25.3389 67.9219C28.419 65.2276 32.4332 63.8491 36.5187 64.0829C40.6043 64.3166 44.4351 66.1438 47.1878 69.1719L61.2607 84.651C63.4676 87.0785 64.8545 90.139 65.2246 93.3987C65.5948 96.6584 64.9296 99.952 63.3232 102.812L89.4118 87.1614C90.0919 86.749 90.6079 86.1135 90.8719 85.3632C91.136 84.6129 91.1316 83.7943 90.8597 83.0469L67.8024 50.7656C67.171 49.8809 66.2786 49.2159 65.2503 48.8638C64.2219 48.5116 63.1092 48.4901 62.068 48.8021L49.1201 52.6823C46.4181 53.4927 43.547 53.5565 40.8116 52.867C38.0763 52.1774 35.5786 50.7601 33.5837 48.7656L32.0576 47.2448C30.6735 45.8609 29.7073 44.115 29.2698 42.2072C28.8322 40.2995 28.941 38.3071 29.5837 36.4583H20.8337V70.3646L21.7347 71.0729ZM73.2451 21.0625C72.3925 20.5193 71.4003 20.236 70.3895 20.2471C69.3786 20.2582 68.3929 20.5632 67.5524 21.125L39.4274 39.875L40.9482 41.401C41.6139 42.0659 42.4472 42.538 43.3597 42.7673C44.2721 42.9965 45.2297 42.9744 46.1305 42.7031L59.0732 38.8229C62.1963 37.8864 65.5341 37.9503 68.619 39.0057C71.7039 40.0611 74.3814 42.0551 76.2764 44.7083L96.4326 72.9166H104.167V36.4583H100.474C98.4926 36.4581 96.5521 35.8925 94.8805 34.8281L73.2451 21.0625ZM32.193 75.7552L23.7764 83.1198L50.5472 104.156L54.2191 97.7396C54.7647 96.7839 54.9935 95.6799 54.8728 94.5861C54.7521 93.4922 54.2881 92.4648 53.5472 91.651L39.4795 76.1719C38.562 75.163 37.2854 74.5543 35.924 74.4764C34.5625 74.3985 33.2196 74.8576 32.193 75.7552Z" fill="#4CA626"/>
</svg>
