<svg width="176" height="176" viewBox="0 0 176 176" fill="none" xmlns="http://www.w3.org/2000/svg">
<path d="M72.1336 54.5651L93.8127 130.569C94.4837 132.927 94.3007 135.447 93.296 137.684C92.2913 139.921 90.5294 141.732 88.3206 142.797C86.1119 143.862 83.598 144.114 81.2219 143.508C78.8457 142.901 76.7599 141.476 75.3317 139.482L53.1348 107.975M53.1348 107.975C47.7197 107.299 42.7061 104.779 38.9394 100.83C35.1727 96.8818 32.8858 91.7531 32.4658 86.3122C32.0458 80.8714 33.5185 75.4525 36.6347 70.9726C39.7508 66.4928 44.319 63.2271 49.5662 61.7282L59.9897 58.755C83.3176 52.101 101.371 39.359 107.284 26.8068L130.005 106.463C118.36 98.9191 96.3068 97.6172 72.9732 104.273L62.5496 107.246C59.4931 108.121 56.29 108.365 53.1348 107.975ZM123.514 83.7041C128.041 82.4128 131.869 79.376 134.157 75.2619C136.445 71.1477 137.005 66.2931 135.714 61.7661C134.423 57.2391 131.386 53.4104 127.272 51.1224C123.158 48.8344 118.303 48.2744 113.776 49.5657" stroke="#4CA626" stroke-width="7" stroke-linecap="round" stroke-linejoin="round"/>
</svg>
